<svg width="36" height="35" viewBox="0 0 36 35" fill="none" xmlns="http://www.w3.org/2000/svg">
<g clip-path="url(#clip0_16_23)">
<path d="M35.5556 0H0.555557V35H35.5556V0Z" fill="#1B73BA"/>
<path d="M18.7863 30.0748C18.5773 30.9036 18.1741 31.4972 17.5767 31.8556C16.9794 32.2066 16.2738 32.382 15.4599 32.382C14.6909 32.382 14.0301 32.2326 13.4776 31.934C12.925 31.6278 12.4994 31.191 12.2008 30.6236C11.9021 30.0562 11.7528 29.373 11.7528 28.574C11.7528 27.775 11.9021 27.0918 12.2008 26.5244C12.4994 25.957 12.925 25.5238 13.4776 25.2252C14.0301 24.919 14.6872 24.766 15.4488 24.766C15.9789 24.766 16.4717 24.8406 16.9271 24.99C17.3826 25.1394 17.7671 25.3746 18.0807 25.6956C18.3943 26.0092 18.6071 26.4124 18.7191 26.9052L16.7367 27.7004C16.6546 27.23 16.509 26.9164 16.2999 26.7596C16.0983 26.5954 15.837 26.5132 15.5159 26.5132C15.0605 26.5132 14.7096 26.685 14.4632 27.0284C14.2242 27.3644 14.1048 27.8796 14.1048 28.574C14.1048 29.261 14.2205 29.7762 14.452 30.1196C14.6834 30.463 15.053 30.6348 15.5608 30.6348C15.8669 30.6348 16.1245 30.5452 16.3335 30.366C16.5426 30.1868 16.6807 29.9068 16.7479 29.526L18.7863 30.0748ZM22.7031 24.766C24.0769 24.766 25.1783 25.1506 26.0071 25.9196L25.0103 27.3868C24.6743 27.103 24.3159 26.8828 23.9351 26.726C23.5617 26.5618 23.1473 26.4796 22.6919 26.4796C22.3409 26.4796 22.0909 26.5282 21.9415 26.6252C21.7997 26.7222 21.7287 26.8454 21.7287 26.9948C21.7287 27.1142 21.7997 27.2114 21.9415 27.286C22.0833 27.3606 22.2887 27.4278 22.5575 27.4876L23.6775 27.7452C24.4241 27.917 24.9805 28.1708 25.3463 28.5068C25.7121 28.8354 25.8951 29.287 25.8951 29.862C25.8951 30.422 25.7533 30.8886 25.4695 31.262C25.1933 31.6354 24.8125 31.9154 24.3271 32.102C23.8417 32.2886 23.2929 32.382 22.6807 32.382C21.9489 32.382 21.2545 32.2738 20.5975 32.0572C19.9479 31.8406 19.4215 31.542 19.0183 31.1612L20.0039 29.6492C20.2055 29.8434 20.4519 30.0188 20.7431 30.1756C21.0343 30.325 21.3441 30.4444 21.6727 30.534C22.0013 30.6236 22.3185 30.6684 22.6247 30.6684C22.9457 30.6684 23.1773 30.6236 23.3191 30.534C23.4685 30.4444 23.5431 30.3212 23.5431 30.1644C23.5431 30.0374 23.4945 29.9366 23.3975 29.862C23.3005 29.7798 23.1175 29.709 22.8487 29.6492L21.6167 29.3692C21.2135 29.2796 20.8401 29.1564 20.4967 28.9996C20.1533 28.8428 19.8769 28.6262 19.6679 28.35C19.4663 28.0662 19.3655 27.6966 19.3655 27.2412C19.3655 26.7558 19.4961 26.3302 19.7575 25.9644C20.0189 25.591 20.3997 25.2998 20.8999 25.0908C21.4001 24.8742 22.0013 24.766 22.7031 24.766ZM29.9547 24.766C31.3285 24.766 32.4299 25.1506 33.2587 25.9196L32.2619 27.3868C31.9259 27.103 31.5675 26.8828 31.1867 26.726C30.8133 26.5618 30.3989 26.4796 29.9435 26.4796C29.5925 26.4796 29.3423 26.5282 29.1931 26.6252C29.0511 26.7222 28.9803 26.8454 28.9803 26.9948C28.9803 27.1142 29.0511 27.2114 29.1931 27.286C29.3349 27.3606 29.5403 27.4278 29.8091 27.4876L30.9291 27.7452C31.6757 27.917 32.2319 28.1708 32.5979 28.5068C32.9637 28.8354 33.1467 29.287 33.1467 29.862C33.1467 30.422 33.0047 30.8886 32.7211 31.262C32.4447 31.6354 32.0639 31.9154 31.5787 32.102C31.0933 32.2886 30.5445 32.382 29.9323 32.382C29.2005 32.382 28.5061 32.2738 27.8491 32.0572C27.1995 31.8406 26.6731 31.542 26.2699 31.1612L27.2555 29.6492C27.4571 29.8434 27.7035 30.0188 27.9947 30.1756C28.2859 30.325 28.5957 30.4444 28.9243 30.534C29.2527 30.6236 29.5701 30.6684 29.8763 30.6684C30.1973 30.6684 30.4287 30.6236 30.5707 30.534C30.7199 30.4444 30.7947 30.3212 30.7947 30.1644C30.7947 30.0374 30.7461 29.9366 30.6491 29.862C30.5519 29.7798 30.3691 29.709 30.1003 29.6492L28.8683 29.3692C28.4651 29.2796 28.0917 29.1564 27.7483 28.9996C27.4047 28.8428 27.1285 28.6262 26.9195 28.35C26.7179 28.0662 26.6171 27.6966 26.6171 27.2412C26.6171 26.7558 26.7477 26.3302 27.0091 25.9644C27.2703 25.591 27.6511 25.2998 28.1515 25.0908C28.6517 24.8742 29.2527 24.766 29.9547 24.766Z" fill="white"/>
<path d="M26.5046 20.0341C22.9187 20.0341 20.6736 18.7171 19.7692 16.0833L24.196 14.2507C24.2118 15.0916 24.4102 15.6628 24.791 15.9643C25.1876 16.2499 25.6557 16.3927 26.1952 16.3927C26.7188 16.3927 27.1392 16.2579 27.4566 15.9881C27.7739 15.7183 27.9326 15.3375 27.9326 14.8457C27.9326 14.3221 27.766 13.9571 27.4328 13.7509C27.1154 13.5287 26.7108 13.4177 26.219 13.4177C25.8223 13.4177 25.4336 13.4494 25.0528 13.5129V10.5616C25.1638 10.5616 25.2828 10.5696 25.4098 10.5854C25.5526 10.6013 25.7192 10.6092 25.9096 10.6092C26.4966 10.6092 26.925 10.4823 27.1948 10.2284C27.4645 9.97457 27.5994 9.56203 27.5994 8.99083C27.5994 8.51483 27.4645 8.14989 27.1948 7.89602C26.9409 7.62628 26.5839 7.49142 26.1238 7.49142C25.6319 7.49142 25.2114 7.64216 24.8624 7.94362C24.5292 8.22922 24.3388 8.76077 24.2912 9.53823L20.0786 8.18162C20.2055 7.22962 20.5625 6.43628 21.1496 5.80161C21.7525 5.15107 22.5062 4.66714 23.4106 4.3498C24.3308 4.0166 25.3463 3.85 26.457 3.85C28.3134 3.85 29.7493 4.23874 30.7648 5.01621C31.7802 5.77781 32.288 6.85675 32.288 8.25302C32.288 8.96703 32.169 9.56203 31.931 10.038C31.693 10.4982 31.3994 10.8631 31.0504 11.1328C30.7172 11.3867 30.3919 11.5771 30.0746 11.704C29.7572 11.8151 29.5113 11.8706 29.3368 11.8706V11.9658C29.5272 11.9658 29.7969 12.0055 30.146 12.0848C30.5109 12.1642 30.8758 12.3228 31.2408 12.5609C31.6216 12.783 31.9389 13.1083 32.1928 13.5367C32.4625 13.9651 32.5974 14.5363 32.5974 15.2503C32.5974 16.2499 32.3197 17.1067 31.7644 17.8207C31.2249 18.5347 30.495 19.0821 29.5748 19.4629C28.6545 19.8437 27.6311 20.0341 26.5046 20.0341Z" fill="white"/>
</g>
<defs>
<clipPath id="clip0_16_23">
<rect width="35" height="35" fill="white" transform="translate(0.555557)"/>
</clipPath>
</defs>
</svg>
