<svg width="36" height="35" viewBox="0 0 36 35" fill="none" xmlns="http://www.w3.org/2000/svg">
<g clip-path="url(#clip0_16_19)">
<path d="M35.7778 0H0.777771V35H35.7778V0Z" fill="#E34E26"/>
<path d="M4.72577 24.878V27.6892H7.12257V24.878H9.41857V32.27H7.12257V29.4028H4.72577V32.27H2.44097V24.878H4.72577ZM17.3606 24.878V26.5916H15.0086V32.27H12.7239V26.5916H10.3495V24.878H17.3606ZM27.3611 24.878V32.27H25.3451V29.3132L25.3899 26.9276H25.3675L23.7435 32.27H21.9067L20.3051 26.9276H20.2715L20.3163 29.3132V32.27H18.3003V24.878H21.5259L22.5227 28.3836L22.8923 29.8508H22.9147L23.2843 28.3836L24.2811 24.878H27.3611ZM30.9976 30.5564H34.5144V32.27H28.7128V24.878H30.9976V30.5564Z" fill="white"/>
<path d="M26.5728 20.034C25.2242 20.034 24.0182 19.788 22.9552 19.2962C21.8922 18.7884 20.9798 17.9238 20.2182 16.702L24.4308 14.6314C24.5894 15.1868 24.8354 15.639 25.1686 15.988C25.5176 16.3212 26.0254 16.4878 26.6918 16.4878C27.3106 16.4878 27.7945 16.3292 28.1436 16.0118C28.4926 15.6944 28.6672 15.2184 28.6672 14.5838C28.6672 13.4097 27.9928 12.8226 26.6442 12.8226C26.1523 12.8226 25.7318 12.894 25.3828 13.0368C25.0338 13.1637 24.7322 13.3383 24.4784 13.5604L20.8846 12.894L21.908 4.088H32.1658V7.7294H25.359L25.0258 10.2522L24.9306 10.6806H24.9544C25.2558 10.3315 25.6842 10.0697 26.2396 9.8952C26.7949 9.72066 27.4058 9.6334 28.0722 9.6334C29.1035 9.6334 29.9841 9.83966 30.714 10.2522C31.4598 10.6489 32.023 11.2042 32.4038 11.9182C32.7846 12.6163 32.975 13.4097 32.975 14.2982C32.975 15.6468 32.6735 16.7416 32.0706 17.5826C31.4676 18.4236 30.6743 19.0424 29.6906 19.439C28.7227 19.8356 27.6834 20.034 26.5728 20.034Z" fill="white"/>
</g>
<defs>
<clipPath id="clip0_16_19">
<rect width="35" height="35" fill="white" transform="translate(0.777771)"/>
</clipPath>
</defs>
</svg>
