<svg width="183" height="75" viewBox="0 0 183 75" fill="none" xmlns="http://www.w3.org/2000/svg">
<path d="M4.81958 40V16.816H21.1276V20.596H9.67958V26.536H19.7956V30.28H9.67958V40H4.81958ZM23.804 40V16.816H34.928C37.592 16.816 39.548 17.524 40.796 18.94C42.044 20.332 42.668 22.216 42.668 24.592C42.668 26.152 42.26 27.496 41.444 28.624C40.652 29.752 39.524 30.568 38.06 31.072C38.444 31.384 38.744 31.72 38.96 32.08C39.2 32.44 39.44 32.92 39.68 33.52L42.488 40H37.448L34.712 33.772C34.472 33.244 34.208 32.872 33.92 32.656C33.632 32.44 33.152 32.332 32.48 32.332H28.664V40H23.804ZM28.664 28.3H33.668C34.94 28.3 35.936 28.024 36.656 27.472C37.376 26.896 37.736 25.936 37.736 24.592C37.736 23.296 37.424 22.348 36.8 21.748C36.176 21.148 35.228 20.848 33.956 20.848H28.664V28.3ZM51.2984 40V31.432L42.9824 16.816H48.0584L53.7464 27.292L59.4344 16.816H64.4744L56.1584 31.432V40H51.2984ZM67.1516 40V16.816H71.3636L82.3436 32.26V16.816H87.2036V40H82.9916L72.0116 24.556V40H67.1516ZM91.304 40V16.816H95.516L106.496 32.26V16.816H111.356V40H107.144L96.164 24.556V40H91.304ZM114.736 23.872L116.752 16.456H120.928L118.408 23.872H114.736ZM131.516 40.36C130.028 40.36 128.636 40.252 127.34 40.036C126.068 39.82 124.964 39.508 124.028 39.1V34.816C125.084 35.248 126.224 35.596 127.448 35.86C128.672 36.124 129.872 36.256 131.048 36.256C132.728 36.256 133.964 36.1 134.756 35.788C135.548 35.476 135.944 34.768 135.944 33.664C135.944 32.968 135.776 32.416 135.44 32.008C135.104 31.6 134.516 31.24 133.676 30.928C132.86 30.592 131.696 30.22 130.184 29.812C127.76 29.14 126.056 28.3 125.072 27.292C124.088 26.284 123.596 24.892 123.596 23.116C123.596 20.98 124.376 19.336 125.936 18.184C127.496 17.032 129.764 16.456 132.74 16.456C134.132 16.456 135.428 16.552 136.628 16.744C137.828 16.936 138.8 17.164 139.544 17.428V21.712C137.576 20.968 135.524 20.596 133.388 20.596C131.876 20.596 130.688 20.764 129.824 21.1C128.96 21.412 128.528 22.084 128.528 23.116C128.528 23.716 128.684 24.196 128.996 24.556C129.308 24.916 129.836 25.24 130.58 25.528C131.348 25.816 132.416 26.14 133.784 26.5C135.68 27.004 137.144 27.604 138.176 28.3C139.208 28.996 139.916 29.788 140.3 30.676C140.708 31.564 140.912 32.56 140.912 33.664C140.912 35.68 140.144 37.3 138.608 38.524C137.072 39.748 134.708 40.36 131.516 40.36Z" fill="#212121"/>
<g filter="url(#filter0_bd_9_29)">
<path d="M115.971 52.662C115.038 54.2785 114.03 55.5813 112.945 56.5704C111.858 57.548 110.996 58.0814 110.357 58.1706C109.731 58.2582 109.222 58.2054 108.832 58.0123C108.445 57.8305 108.126 57.5566 107.877 57.1903C107.441 56.52 107.109 55.6701 106.88 54.6406C106.651 53.6111 106.67 52.3816 106.939 50.9523C107.205 49.5115 107.658 48.1861 108.298 46.9761C108.939 45.7661 109.743 44.7277 110.711 43.8611C111.688 42.9815 112.612 42.4808 113.482 42.3591C114.353 42.2374 115.227 42.2391 116.104 42.3641L116.607 33.89C116.639 32.529 116.788 31.718 117.053 31.4568C117.414 31.0879 117.812 30.8612 118.248 30.7767C118.693 30.6791 119.171 30.5946 119.681 30.5232L120.291 30.4381C120.331 30.8335 120.304 31.6569 120.212 32.9083C119.963 35.1252 119.708 38.605 119.446 43.3477C119.194 48.0774 119.165 50.8826 119.361 51.7634C119.455 52.1867 119.56 52.467 119.674 52.6043C119.788 52.7417 119.956 52.7949 120.176 52.7641C120.408 52.7317 120.805 52.3342 121.365 51.5718C121.937 50.8077 122.754 49.6142 123.818 47.9912L124.245 49.913C124.118 50.0959 123.883 50.4355 123.538 50.9318C123.205 51.4265 122.957 51.7914 122.794 52.0266L122.07 53.0478C121.765 53.5033 121.513 53.8511 121.315 54.0911C121.129 54.3294 120.896 54.6274 120.616 54.9849C120.337 55.3424 120.1 55.6232 119.906 55.8273C119.71 56.0199 119.497 56.2206 119.268 56.4295C118.84 56.8196 118.458 57.0381 118.122 57.0852C117.17 57.2182 116.525 56.524 116.186 55.0026C116.024 54.2705 115.952 53.4903 115.971 52.662ZM116.109 43.9203C116.027 43.7667 115.785 43.6472 115.383 43.5618C114.99 43.4634 114.637 43.4361 114.324 43.4799C113.326 43.6194 112.457 44.2068 111.718 45.2419C110.979 46.277 110.48 47.479 110.222 48.8479C109.962 50.2053 109.961 51.4675 110.221 52.6343C110.544 54.0871 111.181 54.7469 112.133 54.6139C112.876 54.51 113.713 53.9684 114.644 52.9891C115.572 51.9982 116.042 51.2602 116.054 50.775L116.109 43.9203ZM126.635 51.8612C126.803 52.6162 127.09 52.9653 127.496 52.9085C127.751 52.8728 128.407 52.1089 129.463 50.6166C130.529 49.1112 131.365 47.8679 131.973 46.8866L132.4 48.8084C130.607 51.3472 129.393 52.9913 128.758 53.7406C127.599 55.0939 126.52 55.864 125.52 56.0509C125.01 56.1223 124.577 55.9527 124.223 55.5423C123.865 55.1204 123.608 54.5549 123.45 53.8456C123.293 53.1364 123.247 51.4266 123.315 48.7161C123.382 46.0057 123.459 44.3613 123.546 43.783C123.644 43.2031 123.739 42.7948 123.83 42.5579C123.921 42.3211 124.057 42.1252 124.238 41.9702C124.418 41.8151 124.577 41.6928 124.712 41.603C124.857 41.5002 125.088 41.409 125.405 41.3292C125.85 41.2316 126.404 41.1366 127.065 41.0441C126.519 47.0887 126.375 50.6944 126.635 51.8612ZM126.294 36.4458C125.47 36.561 124.966 36.2068 124.783 35.3831C124.656 34.8112 124.748 34.2321 125.061 33.6458C125.382 33.0465 125.839 32.7055 126.431 32.6228C127.023 32.54 127.489 32.5928 127.83 32.781C128.171 32.9692 128.394 33.2978 128.498 33.7668C128.6 34.2244 128.432 34.761 127.995 35.3765C127.569 35.9904 127.002 36.3468 126.294 36.4458ZM134.277 54.8268C132.884 55.0214 131.81 54.1749 131.056 52.2871C130.882 51.8278 130.739 51.3465 130.627 50.8432C130.349 49.5963 130.383 48.2942 130.727 46.9368C131.072 45.5794 131.644 44.3318 132.444 43.1938C133.255 42.0542 134.305 41.07 135.592 40.2413C136.892 39.4109 138.29 38.8911 139.787 38.6818C140.518 38.5796 141.535 38.6321 142.838 38.8392C142.844 38.9209 142.845 39.4633 142.84 40.4665C142.834 41.4582 142.832 42.4728 142.835 43.5103C142.845 46.3515 142.924 48.1039 143.071 48.7674C143.219 49.4308 143.467 49.7382 143.815 49.6896C144.581 49.5825 146.033 47.8815 148.173 44.5865L148.6 46.5083C147.235 48.5509 145.879 50.2561 144.532 51.6239C143.197 52.9901 142.262 53.7105 141.728 53.7851C140.846 53.9085 140.238 53.2208 139.905 51.7223C139.796 51.2304 139.719 50.6691 139.674 50.0384C139.078 51.2305 138.307 52.2877 137.364 53.2098C136.432 54.1304 135.403 54.6694 134.277 54.8268ZM134.121 49.3639C134.503 51.0798 135.262 51.8582 136.4 51.6992C136.887 51.6311 137.429 51.2959 138.025 50.6936C138.632 50.0897 139.159 49.444 139.604 48.7566L139.729 40.0346C138.475 40.2098 137.361 40.8198 136.384 41.8644C135.408 42.9091 134.72 44.1199 134.32 45.4969C133.92 46.8738 133.854 48.1628 134.121 49.3639ZM153.493 38.7296L155.529 38.1973C155.866 38.1503 156.052 38.2068 156.087 38.367C156.123 38.5271 155.922 39.4811 155.485 41.2288C154.476 45.1915 154.055 47.5503 154.223 48.3053C154.226 48.3167 154.23 48.3633 154.236 48.445C154.251 48.5136 154.264 48.5708 154.274 48.6166C154.294 48.6493 154.317 48.6991 154.344 48.7662C154.37 48.8332 154.399 48.8822 154.43 48.9133C154.534 49.0049 154.662 49.0401 154.813 49.019C155.114 48.9769 155.887 48.173 157.13 46.6073C158.383 45.0287 159.209 43.8221 159.61 42.9876L160.038 44.9094C156.803 49.5724 154.465 52.0045 153.026 52.2057C152.516 52.2771 152.083 52.1076 151.728 51.6971C151.371 51.2752 151.144 50.847 151.048 50.4123C150.951 49.9776 150.928 49.4678 150.977 48.8829C151.024 48.2866 151.111 47.6022 151.238 46.8295C151.377 46.0552 151.508 45.3528 151.631 44.7222C151.754 44.0917 151.89 43.4122 152.039 42.6836C152.198 41.942 152.287 41.5108 152.308 41.3899C151.794 42.1459 151.184 42.9802 150.477 43.8928C149.783 44.8038 149.139 45.7017 148.546 46.5867L148.118 44.6649L150.847 40.5503C149.355 40.4051 148.318 39.9956 147.738 39.3219C147.612 39.1862 147.536 39.0611 147.511 38.9467C147.332 38.146 147.484 37.3995 147.964 36.7072C148.444 36.0149 149.195 35.5974 150.216 35.4546C150.738 35.3816 151.067 35.6483 151.202 36.2545C151.281 36.6092 151.263 37.0127 151.148 37.4652C151.031 37.9062 150.844 38.2213 150.586 38.4106C151.225 38.805 152.194 38.9113 153.493 38.7296ZM167.265 46.2521C165.131 49.1925 163.135 50.7926 161.278 51.0521C160.559 51.1527 159.975 50.9512 159.528 50.4475C159.093 49.9423 158.778 49.2549 158.585 48.3856C158.262 46.9328 158.493 43.1319 159.28 36.983C159.263 36.6905 160.171 36.4161 162.005 36.1598L162.614 36.0746C162.619 36.0975 162.548 36.88 162.4 38.4222C161.957 43.0487 161.827 45.7738 162.011 46.5974C162.194 47.4211 162.674 47.7785 163.452 47.6698C164.113 47.5773 164.869 47.1827 165.719 46.4859C166.581 45.7874 167.056 45.261 167.145 44.9066L167.455 37.5032C167.494 36.4952 167.71 35.8517 168.103 35.5727C168.401 35.354 168.922 35.1928 169.665 35.0889L170.848 34.9235C170.747 35.7043 170.648 36.9802 170.551 38.7512C170.466 40.5205 170.403 41.7736 170.364 42.5104C170.278 44.1148 170.225 45.2486 170.205 45.9119L170.169 46.3947C172.331 43.8513 173.82 42.0155 174.634 40.8873L175.061 42.8091L170.396 48.7868L170.411 48.8554C170.467 50.3455 170.333 51.7088 170.01 52.9453C169.698 54.1802 169.259 55.1911 168.692 55.978C167.531 57.5911 166.179 58.5055 164.635 58.7213C163.834 58.8333 163.03 58.6863 162.222 58.2803C161.413 57.8743 160.933 57.3281 160.78 56.6418C160.627 55.9554 160.73 55.3396 161.087 54.7942C161.459 54.2587 162.026 53.6899 162.79 53.0877L167.301 49.0779L167.265 46.2521ZM167.562 51.2176L164.787 53.6754C164.455 53.9577 164.191 54.1952 163.994 54.3878C163.812 54.5902 163.645 54.8613 163.493 55.201C163.341 55.5406 163.304 55.8821 163.38 56.2252C163.589 57.1633 164.122 57.5722 164.981 57.4522C166.014 57.3078 166.734 56.6705 167.141 55.5403C167.548 54.4101 167.688 52.9692 167.562 51.2176Z" fill="#D80101"/>
</g>
<defs>
<filter id="filter0_bd_9_29" x="98.0635" y="19.3853" width="84.1158" height="55.0435" filterUnits="userSpaceOnUse" color-interpolation-filters="sRGB">
<feFlood flood-opacity="0" result="BackgroundImageFix"/>
<feGaussianBlur in="BackgroundImage" stdDeviation="2"/>
<feComposite in2="SourceAlpha" operator="in" result="effect1_backgroundBlur_9_29"/>
<feColorMatrix in="SourceAlpha" type="matrix" values="0 0 0 0 0 0 0 0 0 0 0 0 0 0 0 0 0 0 127 0" result="hardAlpha"/>
<feOffset dy="4"/>
<feGaussianBlur stdDeviation="2"/>
<feComposite in2="hardAlpha" operator="out"/>
<feColorMatrix type="matrix" values="0 0 0 0 0 0 0 0 0 0 0 0 0 0 0 0 0 0 0.25 0"/>
<feBlend mode="normal" in2="effect1_backgroundBlur_9_29" result="effect2_dropShadow_9_29"/>
<feBlend mode="normal" in="SourceGraphic" in2="effect2_dropShadow_9_29" result="shape"/>
</filter>
</defs>
</svg>
